{"glyphs":{":":{"x_min":0,"x_max":274,"ha":274,"o":"m 72 356 l 72 519 l 202 519 l 202 356 z m 72 0 l 72 163 l 202 163 l 202 0 z"},"$":{"x_min":0,"x_max":641,"ha":641,"o":"m 509 502 q 506 506 492 515 q 477 524 454 534 q 432 545 404 554 q 377 564 349 568 l 349 432 l 381 424 q 432 410 473 394 q 514 377 542 352 q 571 328 586 293 q 602 258 602 209 q 602 152 582 112 q 562 72 528 46 q 495 21 452 8 q 408 -5 360 -7 l 360 -123 l 291 -123 l 291 -6 q 222 0 154 22 q 87 44 33 80 l 105 223 q 109 218 126 206 q 144 195 171 182 q 198 170 232 158 q 266 147 302 142 l 302 275 l 254 289 q 205 304 169 322 q 133 339 110 362 q 86 385 74 415 q 63 445 63 485 q 63 537 81 578 q 99 618 130 647 q 160 676 202 692 q 243 709 291 714 l 291 815 l 360 815 l 360 714 q 425 708 482 685 q 539 662 581 638 z m 426 193 q 426 219 405 234 q 384 248 349 260 l 349 140 q 426 143 426 193 z m 232 511 q 232 486 250 472 q 267 457 302 446 l 302 569 q 232 563 232 511 z"},"?":{"x_min":0,"x_max":490,"ha":490,"o":"m 109 245 q 109 268 112 289 q 115 310 124 330 q 132 349 148 366 q 164 383 190 397 q 203 404 224 416 q 246 427 266 442 q 287 457 302 476 q 317 496 317 520 q 317 553 293 572 q 269 590 238 590 q 218 590 202 582 q 187 575 174 564 q 162 554 153 541 q 144 528 137 518 l 34 590 q 60 651 116 685 q 173 719 244 719 q 282 719 320 708 q 358 697 388 673 q 418 649 437 611 q 456 573 456 519 q 456 462 432 424 q 409 385 363 356 q 342 342 320 331 q 299 320 281 308 q 263 296 252 281 q 241 266 241 245 z m 112 0 l 112 150 l 243 150 l 243 0 z"},"<":{"x_min":0,"x_max":518,"ha":518,"o":"m 32 293 l 454 549 l 454 379 l 264 259 l 454 146 l 454 -33 l 32 217 z"},"'":{"x_min":0,"x_max":250,"ha":250,"o":"m 57 497 l 57 726 l 192 726 l 192 497 z"},"=":{"x_min":0,"x_max":435,"ha":435,"o":"m 59 124 l 59 226 l 376 226 l 376 124 z m 59 326 l 59 428 l 376 428 l 376 326 z"},"a":{"x_min":0,"x_max":586,"ha":586,"o":"m 204 -10 q 165 -10 132 2 q 98 15 74 38 q 50 60 36 90 q 22 121 22 157 q 22 196 38 228 q 55 260 85 283 q 115 306 156 319 q 197 332 247 332 q 280 332 311 326 q 342 321 365 310 l 365 334 q 365 425 260 425 q 217 425 178 410 q 139 396 96 367 l 49 467 q 101 501 157 518 q 213 535 276 535 q 395 535 460 479 q 525 423 525 315 l 525 180 q 525 156 532 146 q 540 137 559 135 l 559 0 q 538 -5 521 -6 q 504 -8 490 -8 q 445 -8 422 10 q 399 27 393 59 l 390 83 q 355 38 306 14 q 258 -10 204 -10 z m 251 105 q 277 105 302 114 q 326 123 342 138 q 365 156 365 176 l 365 226 q 344 234 320 238 q 295 243 274 243 q 230 243 202 223 q 173 203 173 171 q 173 142 195 124 q 217 105 251 105 z"},"L":{"x_min":0,"x_max":585,"ha":585,"o":"m 68 0 l 68 710 l 232 710 l 232 144 l 576 144 l 576 0 z"},"3":{"x_min":0,"x_max":569,"ha":569,"o":"m 393 237 q 424 231 450 216 q 476 200 494 176 q 513 153 523 122 q 533 92 533 57 q 533 10 514 -28 q 495 -65 460 -92 q 424 -118 374 -132 q 324 -147 262 -147 q 110 -147 24 -58 l 110 56 q 137 28 172 14 q 206 -1 254 -1 q 367 -1 367 82 q 367 127 334 150 q 300 173 228 173 l 198 173 l 198 288 l 231 288 q 287 288 318 311 q 350 334 350 372 q 350 405 327 422 q 304 439 266 439 q 225 439 192 420 q 158 400 135 364 l 34 480 q 50 501 76 519 q 102 537 135 550 q 168 562 206 569 q 244 576 284 576 q 337 576 381 564 q 425 551 456 528 q 487 504 504 472 q 521 439 521 399 q 521 369 512 342 q 502 315 485 293 q 468 271 444 256 q 421 242 393 237 z"},";":{"x_min":0,"x_max":280,"ha":280,"o":"m 74 356 l 74 519 l 204 519 l 204 356 z m 90 -135 l 122 2 l 73 2 l 73 163 l 208 163 l 208 2 l 161 -135 z"},"J":{"x_min":0,"x_max":494,"ha":494,"o":"m 40 167 q 50 159 82 147 q 115 135 158 135 q 195 135 217 148 q 239 160 251 186 q 263 212 266 252 q 270 293 270 349 l 270 710 l 434 710 l 434 349 q 434 268 426 202 q 417 135 388 88 q 360 41 305 15 q 250 -11 158 -11 q 68 -11 4 33 z"},"V":{"x_min":0,"x_max":674,"ha":674,"o":"m 171 710 l 338 206 l 503 710 l 676 710 l 407 0 l 269 0 l -3 710 z"},"\"":{"x_min":0,"x_max":431,"ha":431,"o":"m 57 498 l 57 726 l 192 726 l 192 498 z m 239 498 l 239 726 l 374 726 l 374 498 z"},"7":{"x_min":0,"x_max":576,"ha":576,"o":"m 328 438 l 29 438 l 29 584 l 580 584 l 230 -126 l 49 -126 z"},"S":{"x_min":0,"x_max":615,"ha":615,"o":"m 494 502 q 491 506 473 517 q 455 528 428 540 q 401 552 369 561 q 337 570 305 570 q 217 570 217 511 q 217 493 226 481 q 236 469 254 460 q 273 450 301 442 q 329 434 366 424 q 417 410 458 394 q 499 377 528 352 q 556 328 572 293 q 587 258 587 209 q 587 149 564 108 q 542 66 505 40 q 468 15 420 4 q 372 -8 321 -8 q 282 -8 241 -2 q 200 4 161 16 q 122 27 86 43 q 49 59 18 80 l 90 223 q 94 218 116 204 q 138 190 170 176 q 203 162 243 151 q 283 140 324 140 q 411 140 411 193 q 411 213 398 226 q 385 239 362 250 q 339 260 308 269 q 276 278 239 289 q 190 304 154 322 q 118 339 94 362 q 71 385 60 415 q 48 445 48 485 q 48 541 69 584 q 90 627 126 656 q 162 686 210 701 q 257 716 310 716 q 347 716 383 709 q 419 702 452 691 q 485 680 514 666 q 542 652 566 638 z"},"}":{"x_min":0,"x_max":344,"ha":344,"o":"m 52 613 l 52 740 l 227 740 q 233 740 242 734 q 250 728 250 710 l 250 486 q 250 474 254 462 q 259 449 267 439 q 275 429 284 422 q 294 416 305 416 l 305 306 q 285 301 268 282 q 250 263 250 234 l 250 -1 q 250 -19 242 -25 q 234 -31 227 -31 l 52 -31 l 52 96 l 107 96 l 107 288 q 107 311 118 328 q 129 346 144 360 q 128 374 118 392 q 107 409 107 432 l 107 613 z"},"Z":{"x_min":0,"x_max":625,"ha":625,"o":"m 28 123 l 398 566 l 42 566 l 42 710 l 587 710 l 587 587 l 235 144 l 591 144 l 591 0 l 28 0 z"},"x":{"x_min":0,"x_max":542,"ha":542,"o":"m 166 525 l 261 377 l 271 358 l 281 377 l 375 525 l 539 525 l 357 262 l 543 0 l 379 0 l 280 147 l 271 166 l 262 147 l 163 0 l -1 0 l 185 262 l 3 525 z"},")":{"x_min":0,"x_max":324,"ha":324,"o":"m 294 347 q 294 295 282 242 q 269 190 248 138 q 227 87 199 37 q 171 -13 140 -59 l 24 -2 q 77 92 111 178 q 145 263 145 344 q 145 397 130 453 q 116 509 96 560 q 76 611 55 652 q 34 692 20 714 l 142 764 q 174 710 202 657 q 229 604 250 552 q 270 500 282 449 q 294 398 294 347 z"},"&":{"x_min":0,"x_max":729,"ha":729,"o":"m 522 0 l 475 50 q 431 20 382 5 q 333 -10 282 -10 q 224 -10 178 8 q 133 27 102 58 q 71 88 54 127 q 38 166 38 208 q 38 240 47 268 q 56 295 72 318 q 87 341 107 361 q 127 381 149 398 q 113 442 98 474 q 83 505 83 543 q 83 584 98 616 q 113 649 140 672 q 167 695 204 707 q 240 719 283 719 q 321 719 357 710 q 393 700 420 680 q 448 659 465 628 q 482 598 482 556 q 482 499 452 456 q 422 412 374 376 l 485 258 q 498 288 506 324 q 513 359 513 401 l 642 401 q 641 327 624 268 q 608 208 579 160 l 732 0 z m 299 115 q 346 115 388 142 l 247 292 q 221 272 206 252 q 191 231 191 207 q 191 191 198 174 q 205 158 219 145 q 233 132 253 124 q 273 115 299 115 z m 228 549 q 228 533 238 520 q 248 506 274 480 q 305 500 320 516 q 335 532 335 554 q 335 576 320 589 q 306 602 283 602 q 258 602 243 587 q 228 572 228 549 z"},"_":{"x_min":0,"x_max":459,"ha":459,"o":"m 50 -144 l 50 0 l 410 0 l 410 -144 z"},"v":{"x_min":0,"x_max":556,"ha":556,"o":"m 191 0 l 5 525 l 170 525 l 285 128 l 401 525 l 550 525 l 365 0 z"},"O":{"x_min":0,"x_max":760,"ha":760,"o":"m 379 -6 q 300 -6 235 25 q 170 56 124 106 q 78 157 52 222 q 27 287 27 356 q 27 426 54 491 q 80 556 128 606 q 175 655 240 684 q 305 714 382 714 q 461 714 526 683 q 591 652 637 601 q 683 550 708 485 q 733 420 733 353 q 733 283 706 218 q 680 153 633 104 q 586 54 521 24 q 456 -6 379 -6 z m 194 354 q 194 313 206 274 q 218 236 242 206 q 265 176 300 158 q 335 140 380 140 q 427 140 462 159 q 497 178 520 208 q 543 239 554 278 q 566 316 566 356 q 566 397 554 436 q 542 474 518 504 q 494 533 460 550 q 425 568 380 568 q 333 568 298 550 q 264 531 240 501 q 217 471 206 432 q 194 394 194 354 z"},"(":{"x_min":0,"x_max":325,"ha":325,"o":"m 30 347 q 30 398 42 449 q 54 500 74 552 q 95 604 122 657 q 150 710 182 764 l 304 714 q 290 692 269 652 q 248 611 228 560 q 208 509 194 453 q 179 397 179 344 q 179 263 213 178 q 247 92 300 -2 l 184 -59 q 153 -13 125 37 q 97 87 76 138 q 55 190 42 242 q 30 295 30 347 z"},"C":{"x_min":0,"x_max":688,"ha":688,"o":"m 27 361 q 27 425 51 488 q 75 552 121 602 q 167 652 233 683 q 299 714 383 714 q 483 714 556 671 q 630 628 666 559 l 540 471 q 528 499 510 518 q 491 536 469 548 q 447 559 424 564 q 401 568 379 568 q 332 568 297 549 q 262 530 239 500 q 216 470 205 432 q 194 394 194 355 q 194 313 207 274 q 220 235 244 205 q 269 175 304 158 q 338 140 381 140 q 403 140 426 146 q 450 151 472 162 q 493 174 511 192 q 529 211 540 238 l 674 159 q 658 120 626 89 q 595 58 554 37 q 513 16 467 5 q 421 -6 377 -6 q 300 -6 236 26 q 171 57 124 109 q 78 161 52 227 q 27 293 27 361 z"},"W":{"x_min":0,"x_max":1055,"ha":1055,"o":"m 304 709 l 455 709 l 527 482 l 599 709 l 751 709 l 632 379 l 704 188 l 882 710 l 1061 710 l 777 0 l 640 0 l 527 278 l 415 0 l 277 0 l -6 710 l 172 710 l 351 188 l 421 379 z"},"A":{"x_min":0,"x_max":670,"ha":670,"o":"m 261 710 l 409 710 l 668 0 l 500 0 l 445 159 l 224 159 l 170 0 l 2 0 z m 418 272 l 335 523 l 250 272 z"},"f":{"x_min":0,"x_max":385,"ha":385,"o":"m 89 0 l 89 361 l 22 361 l 22 482 l 89 482 l 89 525 q 89 574 102 614 q 115 654 139 682 q 163 710 197 725 q 231 740 272 740 q 336 740 409 709 l 380 589 q 364 596 344 600 q 325 605 308 605 q 249 605 249 531 l 249 482 l 371 482 l 371 361 l 249 361 l 249 0 z"},"Q":{"x_min":0,"x_max":759,"ha":759,"o":"m 552 40 q 514 19 470 7 q 427 -5 379 -5 q 300 -5 235 26 q 170 56 124 106 q 78 157 52 222 q 27 287 27 356 q 27 426 54 491 q 80 556 128 606 q 175 656 240 686 q 305 715 382 715 q 461 715 526 684 q 591 652 637 601 q 683 550 708 485 q 733 420 733 353 q 733 285 709 223 q 685 161 641 112 l 743 0 l 589 0 z m 380 141 q 420 141 450 154 l 336 280 l 490 280 l 534 231 q 550 259 558 291 q 566 323 566 356 q 566 397 554 436 q 542 474 518 504 q 494 533 460 551 q 425 569 380 569 q 333 569 298 550 q 264 532 240 502 q 217 471 206 432 q 194 394 194 354 q 194 313 206 274 q 218 236 242 206 q 265 177 300 159 q 335 141 380 141 z"},"w":{"x_min":0,"x_max":850,"ha":850,"o":"m 702 525 l 854 525 l 637 0 l 506 0 l 425 216 l 344 0 l 213 0 l -4 525 l 147 525 l 290 148 l 339 291 l 246 525 l 374 525 l 425 367 l 475 525 l 603 525 l 511 291 l 560 148 z"},"-":{"x_min":0,"x_max":416,"ha":416,"o":"m 54 203 l 54 347 l 362 347 l 362 203 z"},"E":{"x_min":0,"x_max":599,"ha":599,"o":"m 567 144 l 567 0 l 68 0 l 68 710 l 558 710 l 558 566 l 232 566 l 232 428 l 512 428 l 512 295 l 232 295 l 232 144 z"},"s":{"x_min":0,"x_max":499,"ha":499,"o":"m 262 -10 q 195 -10 130 12 q 65 33 20 74 l 77 172 q 125 139 170 121 q 216 103 258 103 q 289 103 306 114 q 323 125 323 146 q 323 167 302 180 q 280 192 226 206 q 173 221 136 235 q 100 249 77 266 q 54 283 44 305 q 34 327 34 357 q 34 397 50 430 q 66 463 94 486 q 122 509 160 522 q 199 535 244 535 q 303 535 354 519 q 406 503 454 461 l 392 365 q 347 396 312 410 q 277 424 244 424 q 218 424 200 414 q 182 403 182 380 q 182 358 202 347 q 221 336 274 323 q 330 308 368 293 q 407 278 431 260 q 455 241 466 217 q 477 193 477 160 q 477 82 419 36 q 361 -10 262 -10 z"},">":{"x_min":0,"x_max":518,"ha":518,"o":"m 486 217 l 63 -33 l 63 146 l 254 259 l 63 379 l 63 549 l 486 293 z"},"l":{"x_min":0,"x_max":335,"ha":335,"o":"m 53 730 l 213 730 l 213 187 q 213 127 264 127 q 276 127 290 130 q 305 134 317 141 l 338 21 q 308 7 269 -1 q 230 -9 196 -9 q 127 -9 90 27 q 53 63 53 131 z"},"8":{"x_min":0,"x_max":607,"ha":607,"o":"m 566 215 q 566 164 545 123 q 524 82 488 52 q 453 23 405 7 q 357 -9 303 -9 q 250 -9 202 8 q 155 24 119 54 q 83 84 62 126 q 41 169 41 221 q 41 249 50 274 q 59 298 73 318 q 87 338 105 353 q 123 368 140 379 q 107 397 84 432 q 62 467 62 506 q 62 555 84 594 q 107 632 142 658 q 177 683 220 696 q 262 710 303 710 q 344 710 387 697 q 430 684 466 658 q 501 633 524 595 q 546 557 546 508 q 546 488 540 469 q 533 450 522 432 q 512 415 497 402 q 482 388 466 379 q 484 368 502 352 q 520 336 534 316 q 549 295 558 270 q 566 245 566 215 z m 404 225 q 404 246 396 262 q 387 279 373 290 q 359 301 341 307 q 323 313 303 313 q 261 313 232 289 q 203 265 203 224 q 203 204 212 188 q 220 172 234 160 q 248 149 266 142 q 284 136 304 136 q 324 136 342 142 q 361 149 374 161 q 388 173 396 190 q 404 206 404 225 z m 224 503 q 224 485 231 472 q 238 459 250 450 q 261 442 275 438 q 289 433 303 433 q 317 433 332 438 q 346 442 358 451 q 369 460 376 473 q 383 486 383 503 q 383 532 360 550 q 336 569 303 569 q 270 569 247 550 q 224 532 224 503 z"},"\\":{"x_min":0,"x_max":663,"ha":663,"o":"m 203 710 l 638 0 l 462 0 l 26 710 z"},"e":{"x_min":0,"x_max":604,"ha":604,"o":"m 306 -10 q 240 -10 188 12 q 135 33 98 70 q 62 107 43 156 q 24 204 24 257 q 24 314 43 364 q 62 415 98 453 q 134 491 186 513 q 239 535 306 535 q 373 535 425 513 q 477 491 513 454 q 549 416 568 367 q 586 318 586 264 q 586 250 585 236 q 584 223 582 213 l 194 213 q 198 160 232 132 q 267 105 311 105 q 346 105 378 122 q 411 139 422 168 l 558 130 q 527 68 462 29 q 397 -10 306 -10 z m 417 312 q 412 362 381 391 q 350 420 304 420 q 257 420 226 390 q 196 361 191 312 z"},"b":{"x_min":0,"x_max":640,"ha":640,"o":"m 370 -10 q 310 -10 265 16 q 220 41 194 87 l 194 0 l 55 0 l 55 730 l 215 730 l 215 439 q 241 484 284 510 q 328 535 387 535 q 437 535 479 514 q 521 492 551 455 q 581 418 598 368 q 615 317 615 260 q 615 203 596 154 q 578 104 545 68 q 512 31 467 10 q 422 -10 370 -10 z m 325 125 q 353 125 376 136 q 399 146 416 164 q 432 182 442 206 q 451 231 451 260 q 451 288 442 314 q 433 339 418 358 q 402 377 380 388 q 358 399 333 399 q 295 399 264 373 q 232 347 215 308 l 215 198 q 231 164 262 144 q 292 125 325 125 z"},"%":{"x_min":0,"x_max":816,"ha":816,"o":"m 205 411 q 169 411 138 423 q 107 435 84 456 q 61 477 48 506 q 34 534 34 566 q 34 598 48 626 q 61 654 84 675 q 107 696 138 708 q 169 720 205 720 q 241 720 272 708 q 303 696 326 675 q 350 654 363 626 q 376 598 376 566 q 376 534 363 506 q 350 477 326 456 q 303 435 272 423 q 241 411 205 411 z m 205 489 q 230 489 248 512 q 265 534 265 566 q 265 598 248 620 q 230 642 205 642 q 180 642 162 620 q 145 597 145 566 q 145 534 162 512 q 180 489 205 489 z m 611 -10 q 575 -10 544 2 q 513 14 490 35 q 467 56 454 84 q 440 112 440 144 q 440 176 454 204 q 467 233 490 254 q 513 275 544 287 q 575 299 611 299 q 647 299 678 287 q 709 275 732 254 q 756 233 769 204 q 782 176 782 144 q 782 112 769 84 q 756 56 732 35 q 709 14 678 2 q 647 -10 611 -10 z m 611 68 q 636 68 654 90 q 672 113 672 144 q 672 176 654 198 q 636 221 611 221 q 586 221 568 198 q 551 176 551 144 q 551 112 568 90 q 586 68 611 68 z m 103 56 l 385 380 l 641 719 l 713 655 l 440 339 l 174 -9 z"},"m":{"x_min":0,"x_max":935,"ha":935,"o":"m 885 0 l 725 0 l 725 295 q 725 347 706 370 q 687 394 657 394 q 641 394 624 387 q 608 380 594 368 q 580 355 568 338 q 557 321 550 301 l 550 0 l 390 0 l 390 295 q 390 347 371 370 q 352 394 322 394 q 290 394 260 368 q 229 343 215 301 l 215 0 l 55 0 l 55 525 l 199 525 l 199 437 q 228 485 278 510 q 327 535 393 535 q 426 535 450 527 q 475 519 493 505 q 511 491 522 472 q 533 454 538 433 q 568 482 617 508 q 666 535 729 535 q 779 535 810 516 q 840 498 857 468 q 874 439 880 404 q 885 369 885 336 z"},"#":{"x_min":0,"x_max":738,"ha":738,"o":"m 702 412 l 550 412 l 523 298 l 653 298 l 653 179 l 494 179 l 451 0 l 323 0 l 367 179 l 276 179 l 232 0 l 104 0 l 149 179 l 36 179 l 36 298 l 177 298 l 204 412 l 85 412 l 85 522 l 231 522 l 277 710 l 405 710 l 358 522 l 450 522 l 496 710 l 624 710 l 577 522 l 702 522 z m 396 298 l 423 412 l 331 412 l 304 298 z"},",":{"x_min":0,"x_max":243,"ha":243,"o":"m 72 -135 l 103 2 l 54 2 l 54 163 l 189 163 l 189 2 l 142 -135 z"},"n":{"x_min":0,"x_max":612,"ha":612,"o":"m 561 0 l 401 0 l 401 295 q 401 347 382 370 q 362 394 330 394 q 313 394 296 387 q 279 380 263 368 q 247 355 234 338 q 222 321 215 301 l 215 0 l 55 0 l 55 525 l 199 525 l 199 437 q 228 484 281 510 q 334 535 403 535 q 454 535 485 516 q 516 498 533 468 q 550 439 556 404 q 561 369 561 336 z"},"h":{"x_min":0,"x_max":612,"ha":612,"o":"m 561 0 l 401 0 l 401 295 q 401 346 381 370 q 361 394 326 394 q 312 394 296 388 q 279 381 264 368 q 248 356 235 339 q 222 322 215 301 l 215 0 l 55 0 l 55 730 l 215 730 l 215 437 q 244 484 292 510 q 339 535 396 535 q 449 535 482 516 q 514 498 532 470 q 549 441 555 406 q 561 370 561 336 z"},"z":{"x_min":0,"x_max":494,"ha":494,"o":"m 24 96 l 292 414 l 38 414 l 38 525 l 459 525 l 459 429 l 193 111 l 466 111 l 466 0 l 24 0 z"},"B":{"x_min":0,"x_max":684,"ha":684,"o":"m 655 182 q 655 136 636 102 q 617 68 584 46 q 551 23 507 12 q 463 0 414 0 l 68 0 l 68 710 l 463 710 q 500 710 530 694 q 560 678 581 652 q 602 627 614 594 q 625 562 625 528 q 625 477 600 432 q 574 387 523 364 q 584 346 620 300 q 655 254 655 182 z m 488 215 q 488 248 469 271 q 450 294 421 294 l 232 294 l 232 139 l 414 139 q 446 139 467 160 q 488 181 488 215 z m 232 570 l 232 423 l 393 423 q 420 423 441 441 q 462 459 462 497 q 462 532 444 551 q 425 570 399 570 z"},"K":{"x_min":0,"x_max":679,"ha":679,"o":"m 68 0 l 68 710 l 232 710 l 232 404 l 492 710 l 676 710 l 410 393 l 694 0 l 507 0 l 306 286 l 232 209 l 232 0 z"},"R":{"x_min":0,"x_max":670,"ha":670,"o":"m 68 0 l 68 710 l 388 710 q 438 710 480 689 q 523 668 554 634 q 585 600 602 557 q 620 514 620 470 q 620 437 612 406 q 604 376 589 349 q 574 322 552 300 q 531 279 504 264 l 660 0 l 475 0 l 339 229 l 232 229 l 232 0 z m 232 372 l 382 372 q 411 372 432 400 q 453 427 453 470 q 453 514 429 540 q 405 566 377 566 l 232 566 z"},"T":{"x_min":0,"x_max":621,"ha":621,"o":"m 609 566 l 393 566 l 393 0 l 229 0 l 229 566 l 12 566 l 12 710 l 609 710 z"},"P":{"x_min":0,"x_max":623,"ha":623,"o":"m 68 0 l 68 710 l 371 710 q 422 710 464 689 q 507 668 538 634 q 568 600 586 557 q 603 514 603 470 q 603 423 586 380 q 570 337 540 303 q 511 269 469 249 q 427 229 376 229 l 232 229 l 232 0 z m 232 372 l 366 372 q 395 372 416 397 q 437 422 437 470 q 437 495 430 513 q 424 531 413 543 q 402 555 388 560 q 374 566 360 566 l 232 566 z"},"|":{"x_min":0,"x_max":291,"ha":291,"o":"m 78 -130 l 78 775 l 213 775 l 213 -130 z"},"t":{"x_min":0,"x_max":402,"ha":402,"o":"m 395 28 q 362 14 320 2 q 277 -10 234 -10 q 204 -10 178 -2 q 151 5 131 22 q 111 38 100 65 q 88 92 88 130 l 88 404 l 21 404 l 21 525 l 88 525 l 88 692 l 248 692 l 248 525 l 355 525 l 355 404 l 248 404 l 248 185 q 248 159 261 148 q 274 136 294 136 q 312 136 331 142 q 350 148 364 155 z"},"M":{"x_min":0,"x_max":860,"ha":860,"o":"m 628 0 l 628 425 l 474 116 l 386 116 l 232 425 l 232 0 l 68 0 l 68 710 l 246 710 l 430 339 l 615 710 l 792 710 l 792 0 z"},"g":{"x_min":0,"x_max":640,"ha":640,"o":"m 259 -2 q 207 -2 164 19 q 121 40 90 76 q 60 112 43 160 q 26 208 26 263 q 26 321 44 370 q 62 420 94 456 q 126 493 171 514 q 216 535 270 535 q 330 535 374 510 q 419 484 446 439 l 446 525 l 585 525 l 585 36 q 585 -24 562 -72 q 540 -120 500 -154 q 460 -187 404 -205 q 348 -223 281 -223 q 196 -223 136 -196 q 76 -169 31 -118 l 117 -31 q 146 -64 189 -84 q 232 -103 281 -103 q 310 -103 336 -95 q 362 -87 382 -70 q 402 -54 414 -28 q 425 -1 425 36 l 425 87 q 401 43 356 20 q 311 -2 259 -2 z m 314 125 q 351 125 380 146 q 409 166 425 198 l 425 308 q 409 350 376 374 q 343 399 306 399 q 280 399 258 388 q 237 376 222 356 q 206 337 198 312 q 189 286 189 259 q 189 230 198 206 q 208 181 225 163 q 242 145 264 135 q 287 125 314 125 z"},"j":{"x_min":0,"x_max":274,"ha":274,"o":"m 27 -202 q -13 -202 -49 -190 q -85 -177 -114 -152 l -47 -43 q -36 -54 -22 -59 q -8 -64 7 -64 q 30 -64 45 -49 q 60 -34 60 -9 l 60 525 l 220 525 l 220 3 q 220 -42 206 -80 q 191 -118 165 -145 q 139 -172 104 -187 q 68 -202 27 -202 z m 60 585 l 60 730 l 220 730 l 220 585 z"},"i":{"x_min":0,"x_max":270,"ha":270,"o":"m 55 0 l 55 525 l 215 525 l 215 0 z m 55 585 l 55 730 l 215 730 l 215 585 z"},"y":{"x_min":0,"x_max":552,"ha":552,"o":"m 59 -79 q 79 -86 96 -89 q 114 -92 128 -92 q 157 -92 173 -72 q 189 -52 202 0 l 2 525 l 167 525 l 289 137 l 394 525 l 544 525 l 344 -85 q 323 -150 269 -190 q 215 -231 141 -231 q 121 -231 100 -228 q 80 -224 59 -216 z"},"@":{"x_min":0,"x_max":848,"ha":848,"o":"m 423 603 q 497 603 565 580 q 633 556 686 508 q 738 461 770 389 q 801 317 801 221 q 801 207 800 184 q 798 161 793 135 q 788 109 778 82 q 768 55 750 33 q 733 11 706 -2 q 680 -16 643 -16 q 616 -16 598 -8 q 579 -1 568 10 q 557 21 552 35 q 546 49 544 62 q 512 30 468 13 q 423 -4 374 -4 q 299 -4 260 36 q 220 75 220 138 q 220 180 236 209 q 253 238 279 256 q 305 273 338 280 q 372 288 407 288 q 446 288 474 280 q 501 273 515 267 q 515 291 510 311 q 505 331 492 345 q 480 359 458 367 q 437 375 404 375 q 362 375 330 364 q 297 352 274 332 l 246 415 q 320 465 420 465 q 488 465 526 444 q 564 424 582 393 q 601 362 605 324 q 609 287 609 254 l 609 172 q 609 150 610 128 q 611 107 616 90 q 621 74 631 64 q 641 53 658 53 q 683 53 699 72 q 715 92 723 120 q 731 147 734 176 q 737 206 737 225 q 737 293 714 351 q 692 409 650 452 q 608 494 549 518 q 490 542 418 542 q 347 542 289 518 q 231 495 190 454 q 149 412 126 354 q 104 297 104 229 q 104 164 125 107 q 146 50 185 7 q 224 -36 280 -60 q 335 -85 405 -85 q 455 -85 490 -74 q 524 -63 562 -47 l 580 -106 q 538 -126 493 -136 q 448 -146 403 -146 q 328 -146 262 -119 q 196 -92 146 -43 q 97 6 68 76 q 40 145 40 231 q 40 321 72 390 q 103 460 156 507 q 209 554 278 578 q 347 603 423 603 z m 468 93 q 489 103 502 119 q 514 135 514 155 l 514 195 q 500 200 470 207 q 441 214 408 214 q 363 214 338 196 q 314 179 314 140 q 314 108 332 91 q 350 74 385 74 q 402 74 426 78 q 449 83 468 93 z"},".":{"x_min":0,"x_max":239,"ha":239,"o":"m 54 0 l 54 163 l 185 163 l 185 0 z"},"p":{"x_min":0,"x_max":640,"ha":640,"o":"m 387 -10 q 327 -10 283 15 q 239 40 215 85 l 215 -213 l 55 -213 l 55 525 l 194 525 l 194 440 q 223 485 266 510 q 310 535 370 535 q 423 535 468 514 q 512 493 544 456 q 577 420 596 370 q 614 321 614 264 q 614 205 597 155 q 580 105 550 68 q 520 32 478 11 q 436 -10 387 -10 z m 333 125 q 359 125 380 136 q 402 148 418 167 q 434 186 442 212 q 451 237 451 265 q 451 294 442 318 q 432 343 416 361 q 399 379 376 389 q 352 399 325 399 q 292 399 262 380 q 231 360 215 327 l 215 219 q 231 179 264 152 q 296 125 333 125 z"},"X":{"x_min":0,"x_max":651,"ha":651,"o":"m 171 710 l 326 465 l 481 710 l 658 710 l 412 350 l 650 0 l 473 0 l 326 235 l 179 0 l 1 0 l 239 350 l -7 710 z"},"*":{"x_min":0,"x_max":354,"ha":354,"o":"m 71 510 l 118 585 l 47 606 l 68 673 l 141 639 l 135 719 l 218 719 l 212 639 l 286 673 l 307 606 l 236 585 l 283 510 l 224 471 l 177 550 l 130 471 z"},"Y":{"x_min":0,"x_max":663,"ha":663,"o":"m 178 710 l 331 384 l 486 710 l 665 710 l 412 242 l 412 0 l 249 0 l 249 244 l 0 710 z"},"c":{"x_min":0,"x_max":570,"ha":570,"o":"m 24 263 q 24 317 43 366 q 62 416 98 454 q 134 491 186 513 q 239 535 306 535 q 397 535 459 496 q 521 458 552 396 l 396 349 q 365 399 305 399 q 255 399 222 362 q 188 325 188 263 q 188 232 197 206 q 206 181 222 163 q 238 145 260 135 q 281 125 305 125 q 335 125 360 140 q 385 154 397 177 l 553 129 q 524 68 460 29 q 397 -10 306 -10 q 240 -10 188 12 q 135 35 98 72 q 62 110 43 160 q 24 209 24 263 z"},"!":{"x_min":0,"x_max":333,"ha":333,"o":"m 86 282 l 86 717 l 246 717 l 246 282 z m 86 0 l 86 166 l 246 166 l 246 0 z"},"/":{"x_min":0,"x_max":735,"ha":735,"o":"m 708 710 l 203 0 l 26 0 l 531 710 z"},"[":{"x_min":0,"x_max":341,"ha":341,"o":"m 80 -40 l 80 740 l 295 740 l 295 613 l 228 613 l 228 87 l 295 87 l 295 -40 z"},"6":{"x_min":0,"x_max":608,"ha":608,"o":"m 569 239 q 569 187 549 142 q 529 96 494 62 q 459 29 411 10 q 363 -10 307 -10 q 245 -10 196 13 q 147 36 113 79 q 79 122 61 184 q 43 247 43 327 q 43 420 62 492 q 82 565 118 614 q 154 664 206 690 q 258 716 323 716 q 389 716 446 689 q 502 662 545 611 l 455 509 q 430 541 395 559 q 360 577 320 577 q 261 577 226 535 q 192 493 190 416 q 210 443 244 458 q 277 473 321 473 q 374 473 420 455 q 465 437 498 406 q 531 374 550 332 q 569 289 569 239 z m 307 125 q 329 125 349 134 q 369 143 384 158 q 399 174 408 195 q 417 216 417 239 q 417 261 408 281 q 399 301 384 316 q 369 330 349 338 q 329 347 307 347 q 284 347 264 338 q 244 330 229 316 q 214 301 206 281 q 197 261 197 239 q 197 216 206 195 q 215 174 230 158 q 245 143 265 134 q 285 125 307 125 z"},"r":{"x_min":0,"x_max":400,"ha":400,"o":"m 388 388 q 330 387 283 369 q 236 351 215 315 l 215 0 l 55 0 l 55 525 l 202 525 l 202 419 q 229 472 272 502 q 314 532 362 533 q 373 533 378 533 q 383 533 388 532 z"},"2":{"x_min":0,"x_max":580,"ha":580,"o":"m 39 0 q 39 47 46 84 q 53 121 70 152 q 87 182 116 208 q 145 234 189 259 q 236 285 268 302 q 299 319 318 332 q 336 345 344 356 q 352 366 352 380 q 352 408 332 425 q 312 442 275 442 q 233 442 202 422 q 171 401 142 368 l 40 486 q 56 504 83 521 q 110 538 144 552 q 178 565 218 573 q 259 581 303 581 q 411 581 468 534 q 526 487 526 407 q 526 374 516 348 q 505 322 488 302 q 471 281 450 266 q 429 250 407 237 q 392 228 371 216 q 350 204 330 192 q 309 179 292 166 q 274 154 265 144 l 537 144 l 537 0 z"},"{":{"x_min":0,"x_max":344,"ha":344,"o":"m 237 613 l 237 432 q 237 409 226 392 q 215 374 199 360 q 214 346 226 328 q 237 311 237 288 l 237 96 l 292 96 l 292 -31 l 116 -31 q 110 -31 102 -25 q 93 -19 93 -1 l 93 234 q 93 263 76 282 q 59 301 39 306 l 39 416 q 49 416 59 422 q 69 429 76 439 q 84 449 88 462 q 93 474 93 486 l 93 710 q 93 728 102 734 q 111 740 116 740 l 292 740 l 292 613 z"},"9":{"x_min":0,"x_max":589,"ha":589,"o":"m 30 322 q 30 374 50 420 q 70 465 105 498 q 140 532 188 552 q 236 571 292 571 q 354 571 403 548 q 452 525 486 482 q 520 439 538 376 q 556 313 556 234 q 556 141 536 68 q 517 -4 481 -54 q 445 -103 393 -129 q 341 -155 276 -155 q 210 -155 154 -128 q 97 -101 54 -50 l 144 52 q 169 20 204 2 q 239 -16 278 -16 q 337 -16 372 26 q 406 68 408 145 q 388 118 355 103 q 322 88 278 88 q 225 88 180 106 q 134 124 101 156 q 68 187 49 230 q 30 272 30 322 z m 292 436 q 270 436 250 427 q 230 418 215 402 q 200 387 191 366 q 182 345 182 322 q 182 299 190 280 q 199 260 214 246 q 229 231 249 222 q 269 214 292 214 q 314 214 334 222 q 354 231 369 246 q 384 260 393 280 q 402 299 402 322 q 402 345 393 366 q 384 387 369 402 q 354 418 334 427 q 314 436 292 436 z"}," ":{"x_min":0,"x_max":233,"ha":233,"o":""},"I":{"x_min":0,"x_max":300,"ha":300,"o":"m 68 0 l 68 710 l 232 710 l 232 0 z"},"H":{"x_min":0,"x_max":747,"ha":747,"o":"m 679 710 l 679 0 l 515 0 l 515 291 l 232 291 l 232 0 l 68 0 l 68 710 l 232 710 l 232 435 l 515 435 l 515 710 z"},"4":{"x_min":0,"x_max":578,"ha":578,"o":"m 293 -127 l 293 10 l 18 10 l 18 153 l 344 571 l 453 571 l 453 154 l 541 154 l 541 10 l 453 10 l 453 -127 z m 176 154 l 312 154 l 312 331 z"},"~":{"x_min":0,"x_max":587,"ha":587,"o":"m 51 222 q 51 232 58 256 q 66 280 84 305 q 101 330 130 348 q 159 367 202 367 q 230 367 254 358 q 277 350 298 340 q 320 331 340 322 q 361 314 384 314 q 406 314 420 322 q 433 329 440 338 q 448 347 450 355 q 453 363 453 365 l 539 365 q 539 359 532 336 q 524 312 506 287 q 488 262 458 242 q 428 222 383 222 q 355 222 332 230 q 309 238 288 248 q 266 257 245 265 q 224 273 201 273 q 179 273 166 266 q 154 258 148 248 q 141 239 139 231 q 137 223 137 222 l 51 222 z"},"D":{"x_min":0,"x_max":716,"ha":716,"o":"m 68 0 l 68 710 l 333 710 q 421 710 487 682 q 553 654 598 606 q 642 558 664 494 q 687 429 687 356 q 687 275 662 210 q 637 144 590 98 q 544 51 478 26 q 413 0 333 0 z m 520 356 q 520 403 508 442 q 495 480 471 508 q 447 536 412 551 q 377 566 333 566 l 232 566 l 232 144 l 333 144 q 378 144 413 160 q 448 176 472 204 q 495 233 508 272 q 520 310 520 356 z"},"^":{"x_min":0,"x_max":604,"ha":604,"o":"m 38 303 l 236 710 l 369 710 l 566 303 l 436 303 l 302 578 l 166 303 z"},"0":{"x_min":0,"x_max":614,"ha":614,"o":"m 568 293 q 568 227 548 172 q 528 116 493 76 q 458 35 410 12 q 363 -10 307 -10 q 251 -10 203 12 q 155 35 120 76 q 85 116 66 172 q 46 227 46 293 q 46 359 66 414 q 85 470 120 510 q 155 551 203 574 q 251 597 307 597 q 363 597 410 574 q 458 551 493 510 q 528 470 548 414 q 568 359 568 293 z m 407 293 q 407 363 379 406 q 351 450 307 450 q 261 450 234 406 q 206 363 206 293 q 206 223 234 180 q 261 137 307 137 q 351 137 379 180 q 407 223 407 293 z"},"F":{"x_min":0,"x_max":569,"ha":569,"o":"m 68 0 l 68 710 l 550 710 l 550 566 l 232 566 l 232 413 l 494 413 l 494 280 l 232 280 l 232 0 z"},"`":{"x_min":0,"x_max":269,"ha":269,"o":"m 46 730 l 191 730 l 243 600 l 142 572 z"},"k":{"x_min":0,"x_max":569,"ha":569,"o":"m 408 0 l 271 211 l 215 153 l 215 0 l 55 0 l 55 730 l 215 730 l 215 307 l 392 525 l 562 525 l 373 299 l 578 0 z"},"u":{"x_min":0,"x_max":627,"ha":627,"o":"m 214 -10 q 133 -10 92 40 q 50 91 50 189 l 50 525 l 210 525 l 210 224 q 210 176 229 150 q 248 125 283 125 q 315 125 345 142 q 375 159 398 201 l 398 525 l 558 525 l 558 180 q 558 156 566 146 q 573 137 592 135 l 592 0 q 569 -5 553 -6 q 537 -8 524 -8 q 438 -8 426 59 l 423 91 q 387 39 334 14 q 280 -10 214 -10 z"},"]":{"x_min":0,"x_max":341,"ha":341,"o":"m 47 -40 l 47 87 l 113 87 l 113 613 l 47 613 l 47 740 l 261 740 l 261 -40 z"},"U":{"x_min":0,"x_max":747,"ha":747,"o":"m 373 140 q 415 140 444 158 q 473 175 491 204 q 509 233 516 270 q 524 308 524 347 l 524 710 l 688 710 l 688 347 q 688 273 670 209 q 651 145 612 97 q 574 49 514 22 q 455 -6 373 -6 q 288 -6 228 23 q 168 52 130 100 q 93 149 76 213 q 58 277 58 347 l 58 710 l 222 710 l 222 347 q 222 306 230 269 q 238 232 256 203 q 274 174 302 157 q 331 140 373 140 z"},"o":{"x_min":0,"x_max":610,"ha":610,"o":"m 305 -10 q 238 -10 186 12 q 133 34 97 72 q 61 109 42 158 q 24 208 24 262 q 24 316 42 366 q 61 415 97 452 q 133 490 186 512 q 238 535 305 535 q 372 535 424 512 q 476 490 512 452 q 548 415 567 366 q 586 316 586 262 q 586 208 568 158 q 549 109 513 72 q 477 34 424 12 q 372 -10 305 -10 z m 188 262 q 188 200 221 162 q 254 125 305 125 q 330 125 351 135 q 372 145 388 163 q 403 181 412 206 q 421 232 421 262 q 421 324 388 362 q 355 399 305 399 q 280 399 258 389 q 237 379 222 361 q 206 343 197 318 q 188 292 188 262 z"},"N":{"x_min":0,"x_max":759,"ha":759,"o":"m 232 406 l 232 0 l 68 0 l 68 710 l 196 710 l 527 293 l 527 710 l 691 710 l 691 0 l 559 0 z"},"+":{"x_min":0,"x_max":424,"ha":424,"o":"m 379 419 l 379 291 l 284 291 l 284 187 l 140 187 l 140 291 l 46 291 l 46 419 l 140 419 l 140 523 l 284 523 l 284 419 z"},"G":{"x_min":0,"x_max":732,"ha":732,"o":"m 556 70 q 475 -5 369 -5 q 299 -5 237 22 q 175 48 128 96 q 82 144 55 212 q 28 279 28 360 q 28 433 55 498 q 82 563 130 611 q 177 659 242 687 q 307 715 382 715 q 481 715 555 674 q 629 632 666 560 l 544 468 q 520 516 474 542 q 429 569 376 569 q 335 569 302 552 q 268 536 244 506 q 220 477 207 438 q 194 399 194 354 q 194 308 208 269 q 222 230 247 202 q 272 173 306 157 q 341 141 383 141 q 479 141 556 230 l 556 252 l 418 252 l 418 371 l 692 371 l 692 0 l 556 0 z"},"q":{"x_min":0,"x_max":640,"ha":640,"o":"m 253 -10 q 203 -10 162 11 q 120 32 90 69 q 60 106 43 156 q 26 206 26 264 q 26 321 44 370 q 63 420 96 456 q 128 493 172 514 q 217 535 270 535 q 330 535 374 509 q 417 483 446 439 l 446 525 l 585 525 l 585 -25 q 585 -49 594 -58 q 603 -68 626 -69 l 626 -205 q 605 -209 581 -211 q 557 -213 538 -213 q 515 -213 494 -206 q 474 -198 458 -184 q 443 -171 434 -152 q 425 -133 425 -110 l 425 85 q 371 -10 253 -10 z m 314 125 q 349 125 377 144 q 405 164 425 196 l 425 307 q 419 326 407 343 q 395 360 379 372 q 363 385 345 392 q 327 399 309 399 q 283 399 261 388 q 239 376 223 357 q 207 338 198 313 q 189 288 189 260 q 189 201 224 163 q 258 125 314 125 z"},"d":{"x_min":0,"x_max":654,"ha":654,"o":"m 273 -10 q 219 -10 174 10 q 128 31 95 68 q 62 105 44 154 q 25 204 25 263 q 25 320 42 370 q 59 420 90 456 q 121 493 164 514 q 206 535 257 535 q 312 535 356 509 q 401 483 425 439 l 425 730 l 585 730 l 585 180 q 585 156 592 146 q 600 137 619 135 l 619 0 q 597 -5 581 -6 q 565 -8 551 -8 q 509 -8 483 10 q 457 27 453 60 l 450 87 q 422 38 374 14 q 327 -10 273 -10 z m 316 125 q 349 125 380 144 q 410 164 426 198 l 426 308 q 411 348 378 374 q 344 399 308 399 q 282 399 260 388 q 239 376 223 357 q 207 338 198 313 q 190 288 190 260 q 190 231 200 206 q 209 181 226 163 q 242 145 266 135 q 289 125 316 125 z"},"1":{"x_min":0,"x_max":518,"ha":518,"o":"m 494 144 l 494 0 l 62 0 l 62 144 l 204 144 l 204 399 q 195 387 176 374 q 157 362 134 352 q 110 341 86 334 q 61 328 42 328 l 42 476 q 58 476 84 487 q 109 498 134 514 q 159 529 179 545 q 199 561 204 571 l 367 571 l 367 144 z"},"5":{"x_min":0,"x_max":558,"ha":558,"o":"m 294 322 q 345 322 388 305 q 431 288 462 258 q 494 228 512 186 q 529 144 529 93 q 529 39 509 -6 q 489 -50 454 -82 q 418 -114 369 -132 q 320 -149 261 -149 q 183 -149 121 -118 q 59 -87 27 -31 l 116 68 q 145 33 184 12 q 222 -9 262 -9 q 309 -9 337 18 q 365 45 365 90 q 365 133 339 159 q 313 185 271 185 q 244 185 221 173 q 198 161 184 139 l 45 139 q 45 140 49 160 q 53 179 58 210 q 64 241 72 280 q 79 318 87 358 q 105 452 128 571 l 481 571 l 481 425 l 244 425 l 224 304 q 230 311 248 316 q 265 322 294 322 z"}}}
